<?xml version="1.0" encoding="utf-8"?>
<!-- Generator: Adobe Illustrator 23.0.3, SVG Export Plug-In . SVG Version: 6.00 Build 0)  -->
<svg version="1.1" id="Calque_1" xmlns="http://www.w3.org/2000/svg" xmlns:xlink="http://www.w3.org/1999/xlink" x="0px" y="0px"
	 viewBox="0 0 60.9 18.3" style="enable-background:new 0 0 60.9 18.3;" xml:space="preserve">
<style type="text/css">
	.st0{fill:#FFFFFF;}
	.st1{font-family:'Nunito-Italic';}
	.st2{font-size:5.6693px;}
</style>
<g id="XMLID_2_">
	<path id="XMLID_3_" class="st0" d="M2.7,12.9c-0.6-0.4-1.1-0.9-1.4-1.5C1,10.7,0.8,9.9,0.8,9.1S1,7.4,1.3,6.8
		c0.3-0.7,0.8-1.2,1.4-1.5C3.3,4.9,4,4.7,4.9,4.7c0.5,0,1,0.1,1.5,0.2c0.5,0.2,0.9,0.4,1.2,0.7c0.1,0.1,0.2,0.2,0.2,0.3
		s0.1,0.2,0.1,0.3c0,0.2,0,0.3-0.1,0.4C7.6,6.8,7.5,6.8,7.4,6.8c-0.2,0-0.4,0-0.5-0.1c-0.3-0.3-0.7-0.4-1-0.5C5.6,6,5.3,6,4.9,6
		C4.1,6,3.5,6.2,3,6.8C2.6,7.3,2.4,8,2.4,9.1c0,1,0.2,1.8,0.6,2.3s1.1,0.8,1.9,0.8c0.3,0,0.7-0.1,1-0.2s0.6-0.3,1-0.5
		c0.1,0,0.2-0.1,0.2-0.1c0.1,0,0.2,0,0.3,0c0.1,0,0.3,0.1,0.3,0.2c0.1,0.1,0.1,0.3,0.1,0.4c0,0.1,0,0.2-0.1,0.3
		c0,0.1-0.1,0.2-0.2,0.3c-0.4,0.3-0.8,0.5-1.2,0.7c-0.5,0.2-1,0.2-1.5,0.2C4,13.4,3.3,13.2,2.7,12.9z"/>
	<path id="XMLID_5_" class="st0" d="M9.4,13.1c-0.1-0.1-0.2-0.3-0.2-0.5v-11c0-0.2,0.1-0.4,0.2-0.6C9.6,0.8,9.8,0.8,10,0.8
		s0.4,0.1,0.6,0.2c0.1,0.1,0.2,0.3,0.2,0.6V12h3.4c0.5,0,0.7,0.2,0.7,0.6c0,0.4-0.2,0.6-0.7,0.6H9.9C9.7,13.3,9.5,13.2,9.4,13.1z"/>
	<path id="XMLID_7_" class="st0" d="M23.5,12.7c0,0.2-0.1,0.3-0.2,0.5c-0.1,0.1-0.3,0.2-0.5,0.2c-0.1,0-0.2,0-0.4-0.1
		c-0.1-0.1-0.2-0.2-0.3-0.3l-0.7-1.6h-4.2L16.5,13c-0.1,0.1-0.2,0.3-0.3,0.3c-0.1,0.1-0.2,0.1-0.4,0.1c-0.2,0-0.4-0.1-0.5-0.2
		c-0.2-0.1-0.2-0.3-0.2-0.5c0-0.1,0-0.2,0.1-0.3l3.3-7.1c0.1-0.2,0.2-0.3,0.3-0.4c0.1-0.1,0.3-0.1,0.5-0.1s0.3,0,0.5,0.1
		C20,5,20.1,5.1,20.1,5.3l3.3,7.1C23.5,12.5,23.5,12.6,23.5,12.7z M20.9,10.1l-1.6-3.6l-1.6,3.6H20.9z"/>
	<path id="XMLID_10_" class="st0" d="M32.8,5C32.9,5.1,33,5.3,33,5.5v7.1c0,0.2-0.1,0.4-0.2,0.5s-0.3,0.2-0.5,0.2s-0.4-0.1-0.5-0.2
		s-0.2-0.3-0.2-0.5V7.7l-2,3.9c-0.1,0.2-0.2,0.3-0.3,0.4c-0.1,0.1-0.2,0.1-0.4,0.1c-0.2,0-0.3,0-0.4-0.1s-0.2-0.2-0.3-0.4l-2.1-3.8
		v4.9c0,0.2-0.1,0.4-0.2,0.5s-0.3,0.2-0.5,0.2s-0.4-0.1-0.5-0.2c-0.1-0.1-0.2-0.3-0.2-0.5V5.5c0-0.2,0.1-0.4,0.2-0.6
		c0.1-0.1,0.3-0.2,0.5-0.2c0.3,0,0.6,0.2,0.7,0.5l2.7,5.1l2.7-5.1c0.2-0.3,0.4-0.5,0.7-0.5C32.4,4.8,32.6,4.8,32.8,5z"/>
	<path id="XMLID_12_" class="st0" d="M42.5,12.7c0,0.2-0.1,0.3-0.2,0.5c-0.1,0.1-0.3,0.2-0.5,0.2c-0.1,0-0.2,0-0.4-0.1
		c-0.1-0.1-0.2-0.2-0.3-0.3l-0.7-1.6h-4.2L35.5,13c-0.1,0.1-0.2,0.3-0.3,0.3c-0.1,0.1-0.2,0.1-0.4,0.1s-0.4-0.1-0.5-0.2
		c-0.2-0.1-0.2-0.3-0.2-0.5c0-0.1,0-0.2,0.1-0.3l3.3-7.1c0.1-0.2,0.2-0.3,0.3-0.4s0.3-0.1,0.5-0.1s0.3,0,0.5,0.1
		C39,5,39.1,5.1,39.1,5.3l3.3,7.1C42.5,12.5,42.5,12.6,42.5,12.7z M39.9,10.1l-1.6-3.6l-1.6,3.6H39.9z"/>
	<path id="XMLID_15_" class="st0" d="M53.2,16.7c0,0.2-0.1,0.3-0.2,0.5c-0.1,0.1-0.3,0.2-0.5,0.2c-0.1,0-0.3,0-0.4-0.1
		c-0.1-0.1-0.2-0.1-0.3-0.3l-4.2-6.4c-0.2-0.3-0.3-0.4-0.5-0.5s-0.4-0.2-0.7-0.2h-1.2v2.7c0,0.2-0.1,0.4-0.2,0.6
		c-0.1,0.1-0.3,0.2-0.6,0.2c-0.2,0-0.4-0.1-0.6-0.2c-0.1-0.1-0.2-0.3-0.2-0.6v-7c0-0.2,0.1-0.4,0.2-0.5c0.1-0.1,0.3-0.2,0.5-0.2h3
		c1,0,1.7,0.2,2.2,0.6s0.8,1,0.8,1.9c0,0.7-0.2,1.2-0.6,1.6s-0.9,0.7-1.6,0.8c0.2,0.1,0.4,0.2,0.6,0.3c0.2,0.1,0.3,0.3,0.5,0.6
		l3.7,5.6C53.2,16.4,53.2,16.6,53.2,16.7z M48.5,8.4c0.3-0.2,0.4-0.6,0.4-1c0-0.5-0.1-0.8-0.4-1S47.8,6,47.2,6h-2v2.7h2
		C47.8,8.7,48.2,8.6,48.5,8.4z"/>
	<path id="XMLID_18_" class="st0" d="M54,15c-0.1-0.1-0.2-0.3-0.2-0.6V6.1h-2.2c-0.5,0-0.7-0.2-0.7-0.6s0.2-0.6,0.7-0.6h5.9
		c0.5,0,0.7,0.2,0.7,0.6S58,6.1,57.5,6.1h-2.2v8.3c0,0.2-0.1,0.4-0.2,0.6c-0.1,0.1-0.3,0.2-0.6,0.2C54.3,15.2,54.1,15.2,54,15z"/>
</g>
<circle id="XMLID_1_" class="st0" cx="54.6" cy="16.6" r="0.8"/>
<text id="XMLID_20_" transform="matrix(1 0 0 1 56.458 17.3439)" class="st0 st1 st2">fr</text>
</svg>
